<mxfile host="app.diagrams.net" agent="Mozilla/5.0 (Windows NT 10.0; Win64; x64) AppleWebKit/537.36 (KHTML, like Gecko) Chrome/138.0.0.0 Safari/537.36" version="27.1.4">
  <diagram name="Page-1" id="agJwHo2duFh0nlWvI7rb">
    <mxGraphModel dx="849" dy="307" grid="1" gridSize="10" guides="1" tooltips="1" connect="1" arrows="1" fold="1" page="1" pageScale="1" pageWidth="850" pageHeight="1100" math="0" shadow="0">
      <root>
        <mxCell id="0" />
        <mxCell id="1" parent="0" />
        <mxCell id="fLNXPQ3UnKxgZeLVkNeZ-3" value="" style="edgeStyle=orthogonalEdgeStyle;rounded=0;orthogonalLoop=1;jettySize=auto;html=1;" edge="1" parent="1" source="fLNXPQ3UnKxgZeLVkNeZ-1" target="fLNXPQ3UnKxgZeLVkNeZ-2">
          <mxGeometry relative="1" as="geometry" />
        </mxCell>
        <mxCell id="fLNXPQ3UnKxgZeLVkNeZ-1" value="Start" style="ellipse;whiteSpace=wrap;html=1;" vertex="1" parent="1">
          <mxGeometry x="370" y="10" width="120" height="80" as="geometry" />
        </mxCell>
        <mxCell id="fLNXPQ3UnKxgZeLVkNeZ-5" value="" style="edgeStyle=orthogonalEdgeStyle;rounded=0;orthogonalLoop=1;jettySize=auto;html=1;" edge="1" parent="1" source="fLNXPQ3UnKxgZeLVkNeZ-2" target="fLNXPQ3UnKxgZeLVkNeZ-4">
          <mxGeometry relative="1" as="geometry" />
        </mxCell>
        <mxCell id="fLNXPQ3UnKxgZeLVkNeZ-2" value="Inlet valve Open" style="whiteSpace=wrap;html=1;" vertex="1" parent="1">
          <mxGeometry x="370" y="140" width="120" height="60" as="geometry" />
        </mxCell>
        <mxCell id="fLNXPQ3UnKxgZeLVkNeZ-10" value="" style="edgeStyle=orthogonalEdgeStyle;rounded=0;orthogonalLoop=1;jettySize=auto;html=1;" edge="1" parent="1" source="fLNXPQ3UnKxgZeLVkNeZ-4" target="fLNXPQ3UnKxgZeLVkNeZ-9">
          <mxGeometry relative="1" as="geometry" />
        </mxCell>
        <mxCell id="fLNXPQ3UnKxgZeLVkNeZ-90" style="edgeStyle=orthogonalEdgeStyle;rounded=0;orthogonalLoop=1;jettySize=auto;html=1;exitX=0;exitY=0.5;exitDx=0;exitDy=0;entryX=1;entryY=0.5;entryDx=0;entryDy=0;" edge="1" parent="1" source="fLNXPQ3UnKxgZeLVkNeZ-4" target="fLNXPQ3UnKxgZeLVkNeZ-89">
          <mxGeometry relative="1" as="geometry" />
        </mxCell>
        <mxCell id="fLNXPQ3UnKxgZeLVkNeZ-4" value="If water is coming?" style="rhombus;whiteSpace=wrap;html=1;" vertex="1" parent="1">
          <mxGeometry x="390" y="290" width="80" height="80" as="geometry" />
        </mxCell>
        <mxCell id="fLNXPQ3UnKxgZeLVkNeZ-9" value="Water alarm and Degas flow looped" style="whiteSpace=wrap;html=1;" vertex="1" parent="1">
          <mxGeometry x="535" y="300" width="120" height="60" as="geometry" />
        </mxCell>
        <mxCell id="fLNXPQ3UnKxgZeLVkNeZ-13" value="" style="edgeStyle=orthogonalEdgeStyle;rounded=0;orthogonalLoop=1;jettySize=auto;html=1;exitX=0.5;exitY=0;exitDx=0;exitDy=0;" edge="1" parent="1" source="fLNXPQ3UnKxgZeLVkNeZ-9" target="fLNXPQ3UnKxgZeLVkNeZ-2">
          <mxGeometry relative="1" as="geometry">
            <mxPoint x="595" y="190" as="sourcePoint" />
            <Array as="points">
              <mxPoint x="595" y="170" />
            </Array>
          </mxGeometry>
        </mxCell>
        <mxCell id="fLNXPQ3UnKxgZeLVkNeZ-14" value="NO" style="text;html=1;align=center;verticalAlign=middle;resizable=0;points=[];autosize=1;strokeColor=none;fillColor=none;" vertex="1" parent="1">
          <mxGeometry x="460" y="298" width="40" height="30" as="geometry" />
        </mxCell>
        <mxCell id="fLNXPQ3UnKxgZeLVkNeZ-25" value="" style="edgeStyle=orthogonalEdgeStyle;rounded=0;orthogonalLoop=1;jettySize=auto;html=1;" edge="1" parent="1" source="fLNXPQ3UnKxgZeLVkNeZ-22" target="fLNXPQ3UnKxgZeLVkNeZ-24">
          <mxGeometry relative="1" as="geometry" />
        </mxCell>
        <mxCell id="fLNXPQ3UnKxgZeLVkNeZ-22" value="Fill the multifuction block using ASP" style="shape=process;whiteSpace=wrap;html=1;backgroundOutline=1;sketch=0;pointerEvents=1;resizable=0;rounded=1;" vertex="1" parent="1">
          <mxGeometry x="210" y="680" width="120" height="60" as="geometry" />
        </mxCell>
        <mxCell id="fLNXPQ3UnKxgZeLVkNeZ-26" style="edgeStyle=orthogonalEdgeStyle;rounded=0;orthogonalLoop=1;jettySize=auto;html=1;exitX=0.5;exitY=1;exitDx=0;exitDy=0;entryX=0.5;entryY=1;entryDx=0;entryDy=0;" edge="1" parent="1" source="fLNXPQ3UnKxgZeLVkNeZ-24" target="fLNXPQ3UnKxgZeLVkNeZ-22">
          <mxGeometry relative="1" as="geometry" />
        </mxCell>
        <mxCell id="fLNXPQ3UnKxgZeLVkNeZ-29" value="" style="edgeStyle=orthogonalEdgeStyle;rounded=0;orthogonalLoop=1;jettySize=auto;html=1;" edge="1" parent="1" source="fLNXPQ3UnKxgZeLVkNeZ-24" target="fLNXPQ3UnKxgZeLVkNeZ-28">
          <mxGeometry relative="1" as="geometry" />
        </mxCell>
        <mxCell id="fLNXPQ3UnKxgZeLVkNeZ-24" value="&lt;div style=&quot;&quot;&gt;&lt;span style=&quot;background-color: transparent; color: light-dark(rgb(0, 0, 0), rgb(255, 255, 255));&quot;&gt;If&amp;nbsp;&lt;/span&gt;&lt;span style=&quot;background-color: transparent; color: light-dark(rgb(0, 0, 0), rgb(255, 255, 255));&quot;&gt;Degas&lt;/span&gt;&lt;/div&gt;&lt;div style=&quot;&quot;&gt;&lt;span style=&quot;background-color: transparent; color: light-dark(rgb(0, 0, 0), rgb(255, 255, 255));&quot;&gt;Level&amp;nbsp;&lt;/span&gt;&lt;span style=&quot;background-color: transparent; color: light-dark(rgb(0, 0, 0), rgb(255, 255, 255));&quot;&gt;filled?&amp;nbsp;&lt;/span&gt;&lt;/div&gt;" style="rhombus;whiteSpace=wrap;html=1;sketch=0;pointerEvents=1;resizable=0;rounded=1;arcSize=0;align=center;" vertex="1" parent="1">
          <mxGeometry x="430" y="670" width="80" height="80" as="geometry" />
        </mxCell>
        <mxCell id="fLNXPQ3UnKxgZeLVkNeZ-27" value="NO" style="text;html=1;align=center;verticalAlign=middle;resizable=0;points=[];autosize=1;strokeColor=none;fillColor=none;" vertex="1" parent="1">
          <mxGeometry x="420" y="738" width="40" height="30" as="geometry" />
        </mxCell>
        <mxCell id="fLNXPQ3UnKxgZeLVkNeZ-31" value="" style="edgeStyle=orthogonalEdgeStyle;rounded=0;orthogonalLoop=1;jettySize=auto;html=1;" edge="1" parent="1" source="fLNXPQ3UnKxgZeLVkNeZ-28" target="fLNXPQ3UnKxgZeLVkNeZ-30">
          <mxGeometry relative="1" as="geometry" />
        </mxCell>
        <mxCell id="fLNXPQ3UnKxgZeLVkNeZ-55" value="" style="edgeStyle=orthogonalEdgeStyle;rounded=0;orthogonalLoop=1;jettySize=auto;html=1;" edge="1" parent="1" source="fLNXPQ3UnKxgZeLVkNeZ-28" target="fLNXPQ3UnKxgZeLVkNeZ-54">
          <mxGeometry relative="1" as="geometry" />
        </mxCell>
        <mxCell id="fLNXPQ3UnKxgZeLVkNeZ-28" value="Start the Balancing champer" style="shape=process;whiteSpace=wrap;html=1;backgroundOutline=1;sketch=0;pointerEvents=1;resizable=0;rounded=1;arcSize=0;" vertex="1" parent="1">
          <mxGeometry x="570" y="680" width="120" height="60" as="geometry" />
        </mxCell>
        <mxCell id="fLNXPQ3UnKxgZeLVkNeZ-38" value="" style="edgeStyle=orthogonalEdgeStyle;rounded=0;orthogonalLoop=1;jettySize=auto;html=1;" edge="1" parent="1" source="fLNXPQ3UnKxgZeLVkNeZ-30" target="fLNXPQ3UnKxgZeLVkNeZ-37">
          <mxGeometry relative="1" as="geometry" />
        </mxCell>
        <mxCell id="fLNXPQ3UnKxgZeLVkNeZ-46" style="edgeStyle=orthogonalEdgeStyle;rounded=0;orthogonalLoop=1;jettySize=auto;html=1;entryX=0.5;entryY=0;entryDx=0;entryDy=0;" edge="1" parent="1" source="fLNXPQ3UnKxgZeLVkNeZ-30" target="fLNXPQ3UnKxgZeLVkNeZ-32">
          <mxGeometry relative="1" as="geometry">
            <Array as="points">
              <mxPoint x="570" y="850" />
              <mxPoint x="570" y="790" />
              <mxPoint x="470" y="790" />
            </Array>
          </mxGeometry>
        </mxCell>
        <mxCell id="fLNXPQ3UnKxgZeLVkNeZ-30" value="&lt;font style=&quot;font-size: 12px;&quot;&gt;If Acid champer filled?&lt;/font&gt;" style="rhombus;whiteSpace=wrap;html=1;sketch=0;pointerEvents=1;resizable=0;rounded=1;arcSize=0;" vertex="1" parent="1">
          <mxGeometry x="590" y="810" width="80" height="80" as="geometry" />
        </mxCell>
        <mxCell id="fLNXPQ3UnKxgZeLVkNeZ-36" value="" style="edgeStyle=orthogonalEdgeStyle;rounded=0;orthogonalLoop=1;jettySize=auto;html=1;" edge="1" parent="1" source="fLNXPQ3UnKxgZeLVkNeZ-32" target="fLNXPQ3UnKxgZeLVkNeZ-35">
          <mxGeometry relative="1" as="geometry" />
        </mxCell>
        <mxCell id="fLNXPQ3UnKxgZeLVkNeZ-51" value="" style="edgeStyle=orthogonalEdgeStyle;rounded=0;orthogonalLoop=1;jettySize=auto;html=1;" edge="1" parent="1" source="fLNXPQ3UnKxgZeLVkNeZ-32" target="fLNXPQ3UnKxgZeLVkNeZ-50">
          <mxGeometry relative="1" as="geometry" />
        </mxCell>
        <mxCell id="fLNXPQ3UnKxgZeLVkNeZ-32" value="&lt;font style=&quot;font-size: 12px;&quot;&gt;If Bicarb champer filled?&lt;/font&gt;" style="rhombus;whiteSpace=wrap;html=1;sketch=0;pointerEvents=1;resizable=0;rounded=1;arcSize=0;" vertex="1" parent="1">
          <mxGeometry x="430" y="810" width="80" height="80" as="geometry" />
        </mxCell>
        <mxCell id="fLNXPQ3UnKxgZeLVkNeZ-34" value="YES" style="text;html=1;align=center;verticalAlign=middle;resizable=0;points=[];autosize=1;strokeColor=none;fillColor=none;" vertex="1" parent="1">
          <mxGeometry x="560" y="810" width="50" height="30" as="geometry" />
        </mxCell>
        <mxCell id="fLNXPQ3UnKxgZeLVkNeZ-47" style="edgeStyle=orthogonalEdgeStyle;rounded=0;orthogonalLoop=1;jettySize=auto;html=1;entryX=1;entryY=0.5;entryDx=0;entryDy=0;" edge="1" parent="1" source="fLNXPQ3UnKxgZeLVkNeZ-35" target="fLNXPQ3UnKxgZeLVkNeZ-32">
          <mxGeometry relative="1" as="geometry">
            <Array as="points">
              <mxPoint x="550" y="1010" />
              <mxPoint x="550" y="850" />
            </Array>
          </mxGeometry>
        </mxCell>
        <mxCell id="fLNXPQ3UnKxgZeLVkNeZ-35" value="Fill the Bicarb chamber using flow pump" style="whiteSpace=wrap;html=1;sketch=0;pointerEvents=1;resizable=0;rounded=1;arcSize=0;" vertex="1" parent="1">
          <mxGeometry x="410" y="980" width="120" height="60" as="geometry" />
        </mxCell>
        <mxCell id="fLNXPQ3UnKxgZeLVkNeZ-39" style="edgeStyle=orthogonalEdgeStyle;rounded=0;orthogonalLoop=1;jettySize=auto;html=1;exitX=1;exitY=0.5;exitDx=0;exitDy=0;entryX=1;entryY=0.5;entryDx=0;entryDy=0;" edge="1" parent="1" source="fLNXPQ3UnKxgZeLVkNeZ-37" target="fLNXPQ3UnKxgZeLVkNeZ-30">
          <mxGeometry relative="1" as="geometry" />
        </mxCell>
        <mxCell id="fLNXPQ3UnKxgZeLVkNeZ-37" value="Fill the acid chamber using flow pump" style="whiteSpace=wrap;html=1;sketch=0;pointerEvents=1;resizable=0;rounded=1;arcSize=0;" vertex="1" parent="1">
          <mxGeometry x="570" y="980" width="120" height="60" as="geometry" />
        </mxCell>
        <mxCell id="fLNXPQ3UnKxgZeLVkNeZ-75" value="" style="edgeStyle=orthogonalEdgeStyle;rounded=0;orthogonalLoop=1;jettySize=auto;html=1;" edge="1" parent="1" source="fLNXPQ3UnKxgZeLVkNeZ-50" target="fLNXPQ3UnKxgZeLVkNeZ-74">
          <mxGeometry relative="1" as="geometry" />
        </mxCell>
        <mxCell id="fLNXPQ3UnKxgZeLVkNeZ-50" value="Start acid and bicarb motor" style="whiteSpace=wrap;html=1;sketch=0;pointerEvents=1;resizable=0;rounded=1;arcSize=0;" vertex="1" parent="1">
          <mxGeometry x="250" y="820" width="120" height="60" as="geometry" />
        </mxCell>
        <mxCell id="fLNXPQ3UnKxgZeLVkNeZ-63" style="edgeStyle=orthogonalEdgeStyle;rounded=0;orthogonalLoop=1;jettySize=auto;html=1;exitX=0;exitY=0.5;exitDx=0;exitDy=0;entryX=1;entryY=0.5;entryDx=0;entryDy=0;" edge="1" parent="1" source="fLNXPQ3UnKxgZeLVkNeZ-54" target="fLNXPQ3UnKxgZeLVkNeZ-61">
          <mxGeometry relative="1" as="geometry" />
        </mxCell>
        <mxCell id="fLNXPQ3UnKxgZeLVkNeZ-68" style="edgeStyle=orthogonalEdgeStyle;rounded=0;orthogonalLoop=1;jettySize=auto;html=1;exitX=1;exitY=0.5;exitDx=0;exitDy=0;entryX=1;entryY=0.5;entryDx=0;entryDy=0;" edge="1" parent="1" source="fLNXPQ3UnKxgZeLVkNeZ-54" target="fLNXPQ3UnKxgZeLVkNeZ-28">
          <mxGeometry relative="1" as="geometry" />
        </mxCell>
        <mxCell id="fLNXPQ3UnKxgZeLVkNeZ-54" value="If HYD pressure is High?" style="rhombus;whiteSpace=wrap;html=1;sketch=0;pointerEvents=1;resizable=0;rounded=1;arcSize=0;" vertex="1" parent="1">
          <mxGeometry x="590" y="530" width="80" height="80" as="geometry" />
        </mxCell>
        <mxCell id="fLNXPQ3UnKxgZeLVkNeZ-62" value="" style="edgeStyle=orthogonalEdgeStyle;rounded=0;orthogonalLoop=1;jettySize=auto;html=1;" edge="1" parent="1" source="fLNXPQ3UnKxgZeLVkNeZ-60" target="fLNXPQ3UnKxgZeLVkNeZ-61">
          <mxGeometry relative="1" as="geometry" />
        </mxCell>
        <mxCell id="fLNXPQ3UnKxgZeLVkNeZ-60" value="Heat the water at 37 deg celcius" style="shape=hexagon;perimeter=hexagonPerimeter2;whiteSpace=wrap;html=1;fixedSize=1;" vertex="1" parent="1">
          <mxGeometry x="210" y="430" width="120" height="80" as="geometry" />
        </mxCell>
        <mxCell id="fLNXPQ3UnKxgZeLVkNeZ-64" style="edgeStyle=orthogonalEdgeStyle;rounded=0;orthogonalLoop=1;jettySize=auto;html=1;exitX=0.5;exitY=1;exitDx=0;exitDy=0;entryX=0.5;entryY=0;entryDx=0;entryDy=0;" edge="1" parent="1" source="fLNXPQ3UnKxgZeLVkNeZ-61" target="fLNXPQ3UnKxgZeLVkNeZ-22">
          <mxGeometry relative="1" as="geometry" />
        </mxCell>
        <mxCell id="fLNXPQ3UnKxgZeLVkNeZ-61" value="Control the Flow pump" style="whiteSpace=wrap;html=1;" vertex="1" parent="1">
          <mxGeometry x="210" y="570" width="120" height="60" as="geometry" />
        </mxCell>
        <mxCell id="fLNXPQ3UnKxgZeLVkNeZ-67" value="YES" style="text;html=1;align=center;verticalAlign=middle;resizable=0;points=[];autosize=1;strokeColor=none;fillColor=none;" vertex="1" parent="1">
          <mxGeometry x="535" y="538" width="50" height="30" as="geometry" />
        </mxCell>
        <mxCell id="fLNXPQ3UnKxgZeLVkNeZ-69" value="NO" style="text;html=1;align=center;verticalAlign=middle;resizable=0;points=[];autosize=1;strokeColor=none;fillColor=none;" vertex="1" parent="1">
          <mxGeometry x="660" y="538" width="40" height="30" as="geometry" />
        </mxCell>
        <mxCell id="fLNXPQ3UnKxgZeLVkNeZ-70" value="YES" style="text;html=1;align=center;verticalAlign=middle;resizable=0;points=[];autosize=1;strokeColor=none;fillColor=none;" vertex="1" parent="1">
          <mxGeometry x="515" y="678" width="50" height="30" as="geometry" />
        </mxCell>
        <mxCell id="fLNXPQ3UnKxgZeLVkNeZ-71" value="NO" style="text;html=1;align=center;verticalAlign=middle;resizable=0;points=[];autosize=1;strokeColor=none;fillColor=none;" vertex="1" parent="1">
          <mxGeometry x="620" y="888" width="40" height="30" as="geometry" />
        </mxCell>
        <mxCell id="fLNXPQ3UnKxgZeLVkNeZ-72" value="NO" style="text;html=1;align=center;verticalAlign=middle;resizable=0;points=[];autosize=1;strokeColor=none;fillColor=none;" vertex="1" parent="1">
          <mxGeometry x="460" y="898" width="40" height="30" as="geometry" />
        </mxCell>
        <mxCell id="fLNXPQ3UnKxgZeLVkNeZ-73" value="YES" style="text;html=1;align=center;verticalAlign=middle;resizable=0;points=[];autosize=1;strokeColor=none;fillColor=none;" vertex="1" parent="1">
          <mxGeometry x="385" y="828" width="50" height="30" as="geometry" />
        </mxCell>
        <mxCell id="fLNXPQ3UnKxgZeLVkNeZ-80" value="" style="edgeStyle=orthogonalEdgeStyle;rounded=0;orthogonalLoop=1;jettySize=auto;html=1;" edge="1" parent="1" source="fLNXPQ3UnKxgZeLVkNeZ-74" target="fLNXPQ3UnKxgZeLVkNeZ-79">
          <mxGeometry relative="1" as="geometry" />
        </mxCell>
        <mxCell id="fLNXPQ3UnKxgZeLVkNeZ-85" style="edgeStyle=orthogonalEdgeStyle;rounded=0;orthogonalLoop=1;jettySize=auto;html=1;exitX=0.5;exitY=0;exitDx=0;exitDy=0;entryX=0;entryY=0.5;entryDx=0;entryDy=0;" edge="1" parent="1" source="fLNXPQ3UnKxgZeLVkNeZ-74" target="fLNXPQ3UnKxgZeLVkNeZ-61">
          <mxGeometry relative="1" as="geometry" />
        </mxCell>
        <mxCell id="fLNXPQ3UnKxgZeLVkNeZ-74" value="If&amp;nbsp;&lt;span style=&quot;background-color: transparent; color: light-dark(rgb(0, 0, 0), rgb(255, 255, 255));&quot;&gt;CD&amp;nbsp;&lt;/span&gt;&lt;div&gt;&lt;span style=&quot;background-color: transparent; color: light-dark(rgb(0, 0, 0), rgb(255, 255, 255));&quot;&gt;value within range?&lt;/span&gt;&lt;/div&gt;" style="rhombus;whiteSpace=wrap;html=1;sketch=0;pointerEvents=1;resizable=0;rounded=1;arcSize=0;" vertex="1" parent="1">
          <mxGeometry x="70" y="810" width="80" height="80" as="geometry" />
        </mxCell>
        <mxCell id="fLNXPQ3UnKxgZeLVkNeZ-76" value="Status PASS" style="shape=step;perimeter=stepPerimeter;whiteSpace=wrap;html=1;fixedSize=1;sketch=0;pointerEvents=1;resizable=0;rounded=1;arcSize=0;" vertex="1" parent="1">
          <mxGeometry x="210" y="920" width="120" height="80" as="geometry" />
        </mxCell>
        <mxCell id="fLNXPQ3UnKxgZeLVkNeZ-81" value="" style="edgeStyle=orthogonalEdgeStyle;rounded=0;orthogonalLoop=1;jettySize=auto;html=1;" edge="1" parent="1" source="fLNXPQ3UnKxgZeLVkNeZ-79" target="fLNXPQ3UnKxgZeLVkNeZ-76">
          <mxGeometry relative="1" as="geometry">
            <mxPoint x="110" y="950" as="sourcePoint" />
            <Array as="points">
              <mxPoint x="165" y="950" />
              <mxPoint x="165" y="958" />
            </Array>
          </mxGeometry>
        </mxCell>
        <mxCell id="fLNXPQ3UnKxgZeLVkNeZ-82" value="" style="edgeStyle=orthogonalEdgeStyle;rounded=0;orthogonalLoop=1;jettySize=auto;html=1;" edge="1" parent="1" target="fLNXPQ3UnKxgZeLVkNeZ-79">
          <mxGeometry relative="1" as="geometry">
            <mxPoint x="110" y="950" as="sourcePoint" />
            <mxPoint x="229" y="958" as="targetPoint" />
            <Array as="points" />
          </mxGeometry>
        </mxCell>
        <mxCell id="fLNXPQ3UnKxgZeLVkNeZ-84" value="" style="edgeStyle=orthogonalEdgeStyle;rounded=0;orthogonalLoop=1;jettySize=auto;html=1;" edge="1" parent="1" source="fLNXPQ3UnKxgZeLVkNeZ-79" target="fLNXPQ3UnKxgZeLVkNeZ-83">
          <mxGeometry relative="1" as="geometry" />
        </mxCell>
        <mxCell id="fLNXPQ3UnKxgZeLVkNeZ-79" value="" style="shape=waypoint;sketch=0;size=6;pointerEvents=1;points=[];fillColor=default;resizable=0;rotatable=0;perimeter=centerPerimeter;snapToPoint=1;rounded=1;arcSize=0;" vertex="1" parent="1">
          <mxGeometry x="100" y="940" width="20" height="20" as="geometry" />
        </mxCell>
        <mxCell id="fLNXPQ3UnKxgZeLVkNeZ-83" value="END" style="ellipse;whiteSpace=wrap;html=1;" vertex="1" parent="1">
          <mxGeometry x="50" y="990" width="120" height="80" as="geometry" />
        </mxCell>
        <mxCell id="fLNXPQ3UnKxgZeLVkNeZ-86" value="NO" style="text;html=1;align=center;verticalAlign=middle;resizable=0;points=[];autosize=1;strokeColor=none;fillColor=none;" vertex="1" parent="1">
          <mxGeometry x="100" y="788" width="40" height="30" as="geometry" />
        </mxCell>
        <mxCell id="fLNXPQ3UnKxgZeLVkNeZ-87" value="YES" style="text;html=1;align=center;verticalAlign=middle;resizable=0;points=[];autosize=1;strokeColor=none;fillColor=none;" vertex="1" parent="1">
          <mxGeometry x="105" y="878" width="50" height="30" as="geometry" />
        </mxCell>
        <mxCell id="fLNXPQ3UnKxgZeLVkNeZ-88" value="YES" style="text;html=1;align=center;verticalAlign=middle;resizable=0;points=[];autosize=1;strokeColor=none;fillColor=none;" vertex="1" parent="1">
          <mxGeometry x="350" y="298" width="50" height="30" as="geometry" />
        </mxCell>
        <mxCell id="fLNXPQ3UnKxgZeLVkNeZ-91" style="edgeStyle=orthogonalEdgeStyle;rounded=0;orthogonalLoop=1;jettySize=auto;html=1;exitX=0.5;exitY=1;exitDx=0;exitDy=0;entryX=0.5;entryY=0;entryDx=0;entryDy=0;" edge="1" parent="1" source="fLNXPQ3UnKxgZeLVkNeZ-89" target="fLNXPQ3UnKxgZeLVkNeZ-60">
          <mxGeometry relative="1" as="geometry" />
        </mxCell>
        <mxCell id="fLNXPQ3UnKxgZeLVkNeZ-93" value="" style="edgeStyle=orthogonalEdgeStyle;rounded=0;orthogonalLoop=1;jettySize=auto;html=1;" edge="1" parent="1" source="fLNXPQ3UnKxgZeLVkNeZ-89" target="fLNXPQ3UnKxgZeLVkNeZ-92">
          <mxGeometry relative="1" as="geometry" />
        </mxCell>
        <mxCell id="fLNXPQ3UnKxgZeLVkNeZ-89" value="" style="shape=orEllipse;perimeter=ellipsePerimeter;whiteSpace=wrap;html=1;backgroundOutline=1;" vertex="1" parent="1">
          <mxGeometry x="230" y="290" width="80" height="80" as="geometry" />
        </mxCell>
        <mxCell id="fLNXPQ3UnKxgZeLVkNeZ-95" value="" style="edgeStyle=orthogonalEdgeStyle;rounded=0;orthogonalLoop=1;jettySize=auto;html=1;" edge="1" parent="1" source="fLNXPQ3UnKxgZeLVkNeZ-92" target="fLNXPQ3UnKxgZeLVkNeZ-94">
          <mxGeometry relative="1" as="geometry" />
        </mxCell>
        <mxCell id="fLNXPQ3UnKxgZeLVkNeZ-100" value="" style="edgeStyle=orthogonalEdgeStyle;rounded=0;orthogonalLoop=1;jettySize=auto;html=1;" edge="1" parent="1" source="fLNXPQ3UnKxgZeLVkNeZ-92" target="fLNXPQ3UnKxgZeLVkNeZ-99">
          <mxGeometry relative="1" as="geometry" />
        </mxCell>
        <mxCell id="fLNXPQ3UnKxgZeLVkNeZ-92" value="If shunt door open?" style="rhombus;whiteSpace=wrap;html=1;" vertex="1" parent="1">
          <mxGeometry x="80" y="290" width="80" height="80" as="geometry" />
        </mxCell>
        <mxCell id="fLNXPQ3UnKxgZeLVkNeZ-97" style="edgeStyle=orthogonalEdgeStyle;rounded=0;orthogonalLoop=1;jettySize=auto;html=1;exitX=1;exitY=0.5;exitDx=0;exitDy=0;entryX=0.5;entryY=0;entryDx=0;entryDy=0;" edge="1" parent="1" source="fLNXPQ3UnKxgZeLVkNeZ-94" target="fLNXPQ3UnKxgZeLVkNeZ-89">
          <mxGeometry relative="1" as="geometry" />
        </mxCell>
        <mxCell id="fLNXPQ3UnKxgZeLVkNeZ-109" style="edgeStyle=orthogonalEdgeStyle;rounded=0;orthogonalLoop=1;jettySize=auto;html=1;exitX=0;exitY=0.5;exitDx=0;exitDy=0;entryX=0;entryY=0.5;entryDx=0;entryDy=0;" edge="1" parent="1" source="fLNXPQ3UnKxgZeLVkNeZ-94" target="fLNXPQ3UnKxgZeLVkNeZ-99">
          <mxGeometry relative="1" as="geometry">
            <Array as="points">
              <mxPoint x="20" y="200" />
              <mxPoint x="20" y="85" />
            </Array>
          </mxGeometry>
        </mxCell>
        <mxCell id="fLNXPQ3UnKxgZeLVkNeZ-94" value="If Stick removed?" style="rhombus;whiteSpace=wrap;html=1;" vertex="1" parent="1">
          <mxGeometry x="80" y="160" width="80" height="80" as="geometry" />
        </mxCell>
        <mxCell id="fLNXPQ3UnKxgZeLVkNeZ-98" value="NO" style="text;html=1;align=center;verticalAlign=middle;resizable=0;points=[];autosize=1;strokeColor=none;fillColor=none;" vertex="1" parent="1">
          <mxGeometry x="160" y="170" width="40" height="30" as="geometry" />
        </mxCell>
        <mxCell id="fLNXPQ3UnKxgZeLVkNeZ-99" value="HOLD the processs" style="whiteSpace=wrap;html=1;" vertex="1" parent="1">
          <mxGeometry x="60" y="70" width="120" height="30" as="geometry" />
        </mxCell>
        <mxCell id="fLNXPQ3UnKxgZeLVkNeZ-107" value="YES" style="text;html=1;align=center;verticalAlign=middle;resizable=0;points=[];autosize=1;strokeColor=none;fillColor=none;" vertex="1" parent="1">
          <mxGeometry x="20" y="170" width="50" height="30" as="geometry" />
        </mxCell>
        <mxCell id="fLNXPQ3UnKxgZeLVkNeZ-108" value="YES" style="text;html=1;align=center;verticalAlign=middle;resizable=0;points=[];autosize=1;strokeColor=none;fillColor=none;" vertex="1" parent="1">
          <mxGeometry x="40" y="280" width="50" height="30" as="geometry" />
        </mxCell>
        <mxCell id="fLNXPQ3UnKxgZeLVkNeZ-116" value="" style="endArrow=none;html=1;rounded=0;edgeStyle=orthogonalEdgeStyle;exitX=0;exitY=0.5;exitDx=0;exitDy=0;entryX=-0.004;entryY=0.978;entryDx=0;entryDy=0;entryPerimeter=0;" edge="1" parent="1" source="fLNXPQ3UnKxgZeLVkNeZ-92" target="fLNXPQ3UnKxgZeLVkNeZ-107">
          <mxGeometry width="50" height="50" relative="1" as="geometry">
            <mxPoint x="20" y="300" as="sourcePoint" />
            <mxPoint x="23" y="230" as="targetPoint" />
          </mxGeometry>
        </mxCell>
        <mxCell id="fLNXPQ3UnKxgZeLVkNeZ-117" value="NO" style="text;html=1;align=center;verticalAlign=middle;resizable=0;points=[];autosize=1;strokeColor=none;fillColor=none;" vertex="1" parent="1">
          <mxGeometry x="155" y="298" width="40" height="30" as="geometry" />
        </mxCell>
      </root>
    </mxGraphModel>
  </diagram>
</mxfile>
